<?xml version="1.0" encoding="UTF-8"?>
<!DOCTYPE svg PUBLIC "-//W3C//DTD SVG 1.1//EN" "http://www.w3.org/Graphics/SVG/1.1/DTD/svg11.dtd">
<!-- Creator: CorelDRAW 2021 (64-Bit) -->
<svg xmlns="http://www.w3.org/2000/svg" xml:space="preserve" width="6in" height="6in" version="1.1" style="shape-rendering:geometricPrecision; text-rendering:geometricPrecision; image-rendering:optimizeQuality; fill-rule:evenodd; clip-rule:evenodd"
viewBox="0 0 6000 6000"
 xmlns:xlink="http://www.w3.org/1999/xlink"
 xmlns:xodm="http://www.corel.com/coreldraw/odm/2003">
 <defs>
  <style type="text/css">
   <![CDATA[
    .fil1 {fill:#CC2973}
    .fil0 {fill:#666666;fill-rule:nonzero}
   ]]>
  </style>
 </defs>
 <g id="Layer_x0020_1">
  <metadata id="CorelCorpID_0Corel-Layer"/>
  <g id="_2571866838176">
   <path class="fil0" d="M-752.69 1538.81c416.04,0 760.44,109.41 1033.18,328.21 272.74,218.81 449.19,514.67 529.3,887.57l-836.71 0c-61.64,-151.01 -156.4,-269.67 -284.29,-355.96 -127.9,-86.29 -279.68,-129.44 -455.34,-129.44 -231.15,0 -417.59,84.76 -559.36,254.25 -141.76,169.5 -212.64,396.01 -212.64,679.55 0,283.52 70.88,509.27 212.64,677.23 141.78,167.94 328.21,251.93 559.36,251.93 175.66,0 327.44,-43.15 455.34,-129.44 127.89,-86.29 222.65,-203.4 284.29,-351.33l836.71 0c-80.12,369.82 -256.56,664.91 -529.3,885.26 -272.74,220.35 -617.13,330.51 -1033.18,330.51 -317.43,0 -596.33,-70.11 -836.71,-210.33 -240.38,-140.22 -426.07,-336.68 -557.03,-589.4 -130.98,-252.71 -196.48,-540.85 -196.48,-864.44 0,-323.59 65.5,-611.74 196.48,-864.46 130.96,-252.71 316.65,-449.17 557.03,-589.39 240.39,-140.22 519.28,-210.34 836.71,-210.34zm3361.19 693.41c295.86,0 530.85,98.63 704.96,295.86 174.13,197.24 261.19,468.43 261.19,813.59l0 1497.77 -790.49 0 0 -1405.31c0,-172.57 -45.45,-307.41 -136.36,-404.49 -90.91,-97.07 -211.87,-145.61 -362.88,-145.61 -160.25,0 -287.38,50.86 -381.37,152.56 -94,101.69 -140.99,246.56 -140.99,434.54l0 1368.33 -790.49 0 0 -3420.81 790.49 0 0 1312.85c73.96,-154.09 184.12,-275.82 330.51,-365.19 146.39,-89.37 318.2,-134.07 515.44,-134.07zm1133.02 -698.02c0,-120.2 43.15,-219.58 129.44,-298.17 86.28,-78.59 200.31,-117.89 342.08,-117.89 141.76,0 255.79,39.3 342.07,117.89 86.3,78.59 129.44,177.97 129.44,298.17 0,117.1 -43.14,214.95 -129.44,293.53 -86.28,78.59 -200.31,117.89 -342.07,117.89 -141.76,0 -255.8,-39.3 -342.08,-117.89 -86.29,-78.57 -129.44,-176.43 -129.44,-293.53zm864.46 725.76l0 2579.48 -790.49 0 0 -2579.48 790.49 0zm1456.61 1807.48l559.36 -1807.48 841.34 0 -915.31 2579.48 -980.01 0 -915.31 -2579.48 841.34 0 568.58 1807.48zm3897.41 -587.07c0,64.71 -7.7,135.59 -23.11,212.64l-1789 0c9.24,194.15 58.56,333.61 147.93,418.35 89.37,84.74 203.4,127.13 342.08,127.13 117.11,0 214.18,-29.27 291.23,-87.83 77.05,-58.56 127.89,-134.06 152.56,-226.52l836.71 0c-33.9,181.83 -107.86,344.39 -221.89,487.69 -114.03,143.32 -258.88,255.79 -434.54,337.47 -175.67,81.66 -371.37,122.5 -587.09,122.5 -252.7,0 -476.91,-53.16 -672.61,-159.48 -195.69,-106.32 -349.02,-259.65 -459.96,-459.97 -110.94,-200.31 -166.42,-434.53 -166.42,-702.65 0,-271.2 54.7,-506.19 164.11,-704.96 109.4,-198.78 262.73,-351.33 459.96,-457.65 197.23,-106.32 422.21,-159.48 674.92,-159.48 255.79,0 480.77,52.39 674.92,157.17 194.15,104.78 344.39,251.94 450.71,441.48 106.32,189.52 159.48,407.56 159.48,654.11zm-799.73 -120.2c3.08,-169.49 -42.37,-296.61 -136.36,-381.37 -94,-84.74 -210.34,-127.13 -349.02,-127.13 -144.84,0 -265.03,43.15 -360.57,129.44 -95.54,86.29 -149.47,212.64 -161.8,379.06l1007.74 0zm2566.08 -1127.94c295.86,0 530.85,98.63 704.96,295.86 174.13,197.24 261.19,468.43 261.19,813.59l0 1497.77 -790.49 0 0 -1405.31c0,-172.57 -45.45,-307.41 -136.37,-404.49 -90.91,-97.07 -211.87,-145.61 -362.88,-145.61 -160.25,0 -287.37,50.86 -381.37,152.56 -94,101.69 -140.99,246.56 -140.99,434.54l0 1368.33 -790.49 0 0 -2579.48 790.49 0 0 471.52c73.96,-154.09 184.13,-275.82 330.51,-365.19 146.39,-89.37 318.2,-134.07 515.44,-134.07zm2667.78 1927.68l0 679.54 -355.96 0c-302.01,0 -537,-74.74 -704.96,-224.2 -167.96,-149.46 -251.93,-396.78 -251.93,-741.94l0 -947.66 -346.7 0 0 -665.67 346.7 0 0 -633.31 790.48 0 0 633.31 517.75 0 0 665.67 -517.75 0 0 961.53c0,101.71 20.8,172.59 62.41,212.65 41.61,40.05 111.72,60.09 210.33,60.09l249.64 0z"/>
   <path class="fil1" d="M-3734.56 3156.19l-2547.67 -0.59c6.11,-106.42 60.01,-275.11 195.31,-309.23 91.39,-23.08 408.4,-8.02 522.91,-8.16 334.26,-0.45 708.5,14.85 1034.87,-3.23 198.57,-11 415.37,-99.44 573.75,-204.41 223.5,-148.11 516.69,-456.05 562.27,-752.54 -195,-9.48 -412.35,0.17 -609.99,-0.24l-1845.49 0c-189.83,-1.67 -423.5,-11.04 -609.19,2.08 -184.03,13.02 -327.45,114.26 -416.35,203.09 -112.8,112.7 -146.16,228.25 -197.84,415.69 -46.55,168.76 -88.86,325.23 -130.89,490.63 -63.62,-39.5 -131.13,-168.8 -155.74,-266.4 -31.59,-125.23 -20.34,-269.31 15.17,-385.87 124.71,-409.44 521.17,-736.58 947.23,-774.2 135.65,-11.98 1536.78,-3.02 1711.82,-2.92 571.64,0.31 877.5,24.72 1318.18,-410.17 107.5,-106.07 314.78,-408.39 310.86,-549.84 -895.96,-6.94 -1800.78,0.7 -2698.38,0.21 -562.26,-0.31 -984.44,33.29 -1459.52,341.34 -206.8,134.12 -334.46,227.38 -501.9,404.02 -101.81,107.43 -103.68,102.74 -208.78,240.26 -377.05,493.4 -565.25,1111.55 -360.84,1724.39 59.81,179.24 227.66,414.75 382.5,524.26 501.49,354.59 892.22,278.13 1519.01,280.46 298.95,1.11 597.91,-0.35 896.87,0.17 276.53,0.48 600.44,26.52 853.17,-48.8 328.25,-97.78 589.34,-324.81 759.1,-587.78 53.24,-82.47 116.87,-213.36 139.57,-322.21zm-342.07 1275.34c-644.28,16.7 -1392.21,-0.17 -2056.56,0.63 -106.35,0.11 -240.99,7.12 -344.04,-0.38 -161.06,-11.73 -102.01,-179.62 -101.32,-196.32 -168.06,-24.75 -481.53,19.3 -736.37,-23.67 -54.08,-9.13 -164.42,-41.76 -205.86,-41.41 -22.74,114.4 -122.39,459.49 -160.19,599.99 -27.56,102.57 -66.47,212.35 -49.22,329.71 16.56,112.53 75.25,187.12 145.05,228.88 109.3,65.43 169.11,64.14 313.61,64.04l1888.59 -0.1c246.48,0.2 425.33,-31.41 614.68,-133.91 144.15,-78.03 273.55,-164.91 382.54,-282.33 18.33,-19.75 24.92,-32.97 43.35,-51.78 88.27,-89.87 233.94,-325.93 265.74,-493.33z"/>
  </g>
 </g>
</svg>
